<?xml version="1.0" encoding="UTF-8" standalone="no"?>
<svg
   version="1.1"
   id="Layer_1"
   x="0px"
   y="0px"
   width="491.01px"
   height="480.736px"
   viewBox="0 0 491.01 480.736"
   enable-background="new 0 0 491.01 480.736"
   xml:space="preserve"
   sodipodi:docname="logo.svg"
   inkscape:version="1.2 (dc2aedaf03, 2022-05-15)"
   xmlns:inkscape="http://www.inkscape.org/namespaces/inkscape"
   xmlns:sodipodi="http://sodipodi.sourceforge.net/DTD/sodipodi-0.dtd"
   xmlns="http://www.w3.org/2000/svg"
   xmlns:svg="http://www.w3.org/2000/svg"><defs
   id="defs134" /><sodipodi:namedview
   id="namedview132"
   pagecolor="#ffffff"
   bordercolor="#cccccc"
   borderopacity="1"
   inkscape:showpageshadow="0"
   inkscape:pageopacity="1"
   inkscape:pagecheckerboard="0"
   inkscape:deskcolor="#d"
   showgrid="false"
   inkscape:zoom="10.549387"
   inkscape:cx="280.11105"
   inkscape:cy="9.668808"
   inkscape:window-width="1920"
   inkscape:window-height="1017"
   inkscape:window-x="-8"
   inkscape:window-y="-8"
   inkscape:window-maximized="1"
   inkscape:current-layer="Layer_1" />
<path
   fill-rule="evenodd"
   clip-rule="evenodd"
   fill="#1F1A17"
   d="M247.958,377.012l0.34,48.216h-10.864l-24.108,34.974  l-26.824-6.113l-3.737-42.104l-11.884-5.77l-34.974,23.088l-21.729-16.639l13.922-39.727l-8.489-10.186l-41.426,6.789  l-12.904-24.106l29.204-30.559l-3.735-12.564l-40.407-10.525l-2.039-27.507l39.049-15.956l2.037-13.24l53.76-0.13  c-3.165,10.316-4.867,21.206-4.867,32.383C138.285,327.777,187.521,377.012,247.958,377.012z"
   id="path69" />
<path
   fill="none"
   stroke="#1F1A17"
   stroke-width="0.216"
   stroke-miterlimit="10"
   d="M247.958,377.012l0.34,48.216h-10.864  l-24.108,34.974l-26.824-6.113l-3.737-42.104l-11.884-5.77l-34.974,23.088l-21.729-16.639l13.922-39.727l-8.489-10.186  l-41.426,6.789l-12.904-24.106l29.204-30.559l-3.735-12.564l-40.407-10.525l-2.039-27.507l39.049-15.956l2.037-13.24l53.76-0.13  c-3.165,10.316-4.867,21.206-4.867,32.383C138.285,327.777,187.521,377.012,247.958,377.012z"
   id="path71" />
<polyline
   fill="#DE401A"
   points="489.243,478.977 245.514,478.977 245.514,240.218 489.243,240.218 "
   id="polyline73" />
<path
   fill="#1F1A17"
   d="M247.268,477.205L247.268,477.205h240.201v-235.22H247.268 M489.243,478.972L489.243,478.972v-1.767V478.972  z M243.736,480.736V238.45H491.01v240.522v1.763H243.736z"
   id="path75" />

<polyline
   fill="#DE401A"
   points="245.509,240.524 1.771,240.524 1.771,1.768 245.509,1.768 "
   id="polyline79" />
<path
   d="m 274.94737,169.48659 h -75.97221 c -5.10113,0 -9.25503,3.90388 -9.25503,8.69372 v 124.37416 c 0,4.79709 4.1539,8.69493 9.25503,8.69493 h 93.05905 c 5.10562,0 9.25567,-3.89784 9.25567,-8.69493 v -106.1863 z m 2.18442,13.0091 11.54626,11.78512 h -11.54626 z m 16.38499,120.05909 c 0,0.76578 -0.66751,1.39448 -1.48673,1.39448 h -93.05489 c -0.81795,0 -1.48161,-0.6287 -1.48161,-1.39448 V 178.18031 c 0,-0.76758 0.66366,-1.38967 1.48161,-1.38967 h 70.37936 v 21.1419 c 0,2.01295 1.74593,3.6448 3.89057,3.6448 h 20.27169 z m -82.31085,-94.24033 h 66.00893 c 1.608,0 2.91223,1.22488 2.91223,2.73504 0,1.51014 -1.30423,2.73502 -2.91223,2.73502 h -66.00893 c -1.60768,0 -2.91222,-1.22488 -2.91222,-2.73502 0,-1.50985 1.30454,-2.73504 2.91222,-2.73504 z m 68.92116,21.11449 c 0,1.50985 -1.30423,2.73503 -2.91223,2.73503 h -66.00893 c -1.60768,0 -2.91222,-1.22489 -2.91222,-2.73503 0,-1.51016 1.30454,-2.73504 2.91222,-2.73504 h 66.00893 c 1.608,0 2.91223,1.22517 2.91223,2.73504 z m 0,17.77754 c 0,1.51016 -1.30423,2.73504 -2.91223,2.73504 h -66.00893 c -1.60768,0 -2.91222,-1.22488 -2.91222,-2.73504 0,-1.51014 1.30454,-2.73503 2.91222,-2.73503 h 66.00893 c 1.608,0 2.91223,1.22489 2.91223,2.73503 z m 0,18.08031 c 0,1.51016 -1.30423,2.73503 -2.91223,2.73503 h -66.00893 c -1.60768,0 -2.91222,-1.22487 -2.91222,-2.73503 0,-1.51015 1.30454,-2.73503 2.91222,-2.73503 h 66.00893 c 1.608,0 2.91223,1.22488 2.91223,2.73503 z"
   id="path345"
   style="display:inline;fill:#ffffff;stroke-width:0.310854"
   inkscape:label="docs" /><path
   fill="#1f1a17"
   d="m 3.536,477.205 v 0 H 243.74 L 243.23234,242.01038 3.536,241.985 m 241.973,236.987 v 0 -1.767 z M 0.003,480.736 V 238.45 h 247.273 v 240.522 1.763 H 0.003 Z"
   id="path77"
   sodipodi:nodetypes="cccccccccccccccc" /><path
   fill="#1f1a17"
   d="m 3.539,238.754 v 0 H 243.74 V 3.531 H 3.539 m 241.97,236.993 -1.04271,2.18022 1.04271,-3.59125 z M 0,242.29 V 0 h 247.272 l 1.57376,240.524 -3.09044,2.71392 z"
   id="path81"
   sodipodi:nodetypes="ccccccccccccccc" />
<polyline
   fill="#FFFFFF"
   points="139.85,25.822 105.583,25.822 77.957,138.715 127.895,117.464 121.521,174.578 107.44,167.938   120.724,213.093 151.274,174.578 135.07,176.967 158.971,80.013 111.694,102.592 "
   id="polyline83" />
<path
   fill="#1F1A17"
   d="M247.264,238.754L247.264,238.754h240.204V3.531H247.272L247.264,238.754z M489.243,240.524L489.243,240.524  v-1.77V240.524z M243.736,242.29V0h247.267v240.524v1.766H243.736z"
   id="path85" />
<path
   fill="none"
   stroke="#1F1A17"
   stroke-width="1.0001"
   stroke-miterlimit="10"
   d="M247.264,238.754L247.264,238.754h240.204  V3.531H247.272L247.264,238.754z M489.243,240.524L489.243,240.524v-1.77V240.524z M243.736,242.29V0h247.267v240.524v1.766H243.736  z"
   id="path87" />












<g
   id="g416"
   style="display:inline"><path
     fill-rule="evenodd"
     clip-rule="evenodd"
     fill="#ffffff"
     d="m 287.069,323.83 c 14.273,-8.789 29.879,-13.484 46.1,-14.463 l 137.064,1.156 0.022,8.382 -139.798,1.309 0.603,-4.218 c -14.262,1.013 -28.178,7.695 -42.786,11.751 -2.737,0.76 -3.927,-2.242 -1.205,-3.917"
     id="path89" /><polyline
     fill-rule="evenodd"
     clip-rule="evenodd"
     fill="#ffffff"
     points="325.033,327.335 325.637,374.942 331.663,374.942   337.689,327.938 "
     id="polyline91" /><path
     fill-rule="evenodd"
     clip-rule="evenodd"
     fill="#ffffff"
     d="m 305.298,374.641 c 10.538,0 19.133,8.662 19.133,19.284 0,10.621 -8.595,19.284 -19.133,19.284 -10.538,0 -19.133,-8.663 -19.133,-19.284 0,-10.622 8.595,-19.284 19.133,-19.284"
     id="path93" /><path
     fill-rule="evenodd"
     clip-rule="evenodd"
     fill="#ffffff"
     d="m 305.299,380.736 c 7.207,0 13.085,5.925 13.085,13.189 0,7.264 -5.878,13.189 -13.085,13.189 -7.209,0 -13.086,-5.925 -13.086,-13.189 -0.001,-7.265 5.877,-13.189 13.086,-13.189"
     id="path95" /><path
     fill-rule="evenodd"
     clip-rule="evenodd"
     fill="#ffffff"
     d="m 405.496,375.102 c 10.538,0 19.133,8.663 19.133,19.284 0,10.621 -8.595,19.283 -19.133,19.283 -10.538,0 -19.133,-8.662 -19.133,-19.283 -10e-4,-10.621 8.594,-19.284 19.133,-19.284"
     id="path97" /><path
     fill-rule="evenodd"
     clip-rule="evenodd"
     fill="#ffffff"
     d="m 405.496,381.197 c 7.208,0 13.086,5.924 13.086,13.189 0,7.264 -5.878,13.189 -13.086,13.189 -7.208,0 -13.086,-5.925 -13.086,-13.189 0,-7.265 5.878,-13.189 13.086,-13.189"
     id="path99" /><path
     fill-rule="evenodd"
     clip-rule="evenodd"
     fill="#ffffff"
     d="m 445.726,375.563 c 10.538,0 19.133,8.663 19.133,19.284 0,10.621 -8.595,19.284 -19.133,19.284 -10.538,0 -19.133,-8.663 -19.133,-19.284 10e-4,-10.622 8.595,-19.284 19.133,-19.284"
     id="path101" /><path
     fill-rule="evenodd"
     clip-rule="evenodd"
     fill="#ffffff"
     d="m 445.727,381.658 c 7.207,0 13.086,5.924 13.086,13.189 0,7.265 -5.878,13.189 -13.086,13.189 -7.208,0 -13.086,-5.924 -13.086,-13.189 -0.001,-7.265 5.878,-13.189 13.086,-13.189"
     id="path103" /><path
     fill-rule="evenodd"
     clip-rule="evenodd"
     fill="#ffffff"
     d="m 302.436,405.675 c -13.702,-4.398 -11.041,-21.635 0,-23.201 -8.437,6.931 -8.53,17.368 0,23.201"
     id="path105" /><path
     fill-rule="evenodd"
     clip-rule="evenodd"
     fill="#ffffff"
     d="m 402.633,406.137 c -13.703,-4.399 -11.041,-21.635 0,-23.201 -8.436,6.93 -8.529,17.367 0,23.201"
     id="path107" /><path
     fill-rule="evenodd"
     clip-rule="evenodd"
     fill="#ffffff"
     d="m 442.864,406.598 c -13.702,-4.399 -11.04,-21.635 0,-23.201 -8.437,6.93 -8.53,17.367 0,23.201"
     id="path109" /><path
     fill-rule="evenodd"
     clip-rule="evenodd"
     fill="#ffffff"
     d="m 320.816,337.278 v -6.026 c -13.86,0.101 -27.721,1.406 -41.581,3.917 -13.458,17.601 -15.467,38.542 -9.641,61.768 l 15.065,0.301 -0.301,-3.013 -8.437,-5.423 c -0.151,-5.876 -0.653,-12.605 0,-19.284 13.523,-5.594 29.062,-8.668 45.799,-10.244 l -1.205,-6.629 c -14.262,0.2 -28.524,1.405 -42.786,4.821 1.507,-6.528 3.817,-11.45 6.93,-14.764 11.249,-2.611 23.301,-4.419 36.157,-5.424"
     id="path111" /><polyline
     fill-rule="evenodd"
     clip-rule="evenodd"
     fill="#ffffff"
     points="340.671,371.062 470.242,371.062 470.242,317.521   340.671,317.521 "
     id="polyline113" /></g>
<g
   id="g117">
	<path
   fill="#1F1A17"
   d="M375.109,107.077l2.467-4.127h12.182l-7.853,31.562c-0.067,0.403-0.118,0.713-0.151,0.931   c-0.033,0.219-0.05,0.412-0.05,0.579c0,0.805,0.209,1.418,0.629,1.837c0.419,0.42,0.998,0.629,1.736,0.629   c4.296,0,8.172-2.382,11.629-7.148c3.456-4.765,5.185-10.319,5.185-16.662c0-7.919-2.929-14.312-8.784-19.179   c-5.856-4.866-13.616-7.299-23.281-7.299c-4.766,0-9.229,0.596-13.39,1.787c-4.162,1.192-7.938,2.962-11.326,5.311   c-5.169,3.624-9.162,8.138-11.981,13.541c-2.818,5.403-4.228,11.275-4.228,17.618c0,9.866,3.347,17.728,10.042,23.583   c6.695,5.856,15.681,8.784,26.956,8.784c5.369,0,10.529-0.789,15.479-2.366c4.949-1.578,9.622-3.927,14.02-7.048l5.788,8.054   c-5.504,4.094-11.242,7.131-17.216,9.111c-5.974,1.98-12.366,2.97-19.179,2.97c-6.31,0-12.266-0.915-17.87-2.744   c-5.604-1.83-10.538-4.455-14.799-7.878c-5.001-3.994-8.743-8.675-11.226-14.044c-2.484-5.369-3.726-11.41-3.726-18.122   c0-5.906,0.932-11.485,2.794-16.738c1.862-5.251,4.606-10.025,8.23-14.321c5-5.94,11.065-10.496,18.197-13.667   c7.131-3.171,14.875-4.757,23.231-4.757c12.953,0,23.457,3.457,31.512,10.37c8.054,6.914,12.081,15.857,12.081,26.831   c0,5.739-1.142,11.016-3.423,15.832c-2.282,4.816-5.571,8.885-9.866,12.207c-2.35,1.846-4.926,3.255-7.728,4.229   c-2.802,0.974-5.73,1.459-8.784,1.459c-3.658,0-6.451-0.637-8.381-1.913c-1.931-1.275-3.046-3.205-3.348-5.789   c-1.98,2.651-4.12,4.581-6.418,5.789c-2.299,1.208-5.009,1.812-8.13,1.812c-5.738,0-10.06-1.476-12.962-4.43   c-2.903-2.953-4.354-7.35-4.354-13.188c0-8.289,2.408-15.194,7.224-20.714c4.815-5.52,10.798-8.281,17.945-8.281   c2.483,0,4.673,0.47,6.569,1.41C372.449,103.838,373.968,105.232,375.109,107.077z M369.32,128.068l2.366-9.816   c-0.235-2.248-0.939-4.002-2.114-5.26c-1.175-1.259-2.702-1.888-4.581-1.888c-3.188,0-5.99,1.955-8.406,5.864   c-2.416,3.91-3.624,8.516-3.624,13.818c0,2.417,0.511,4.288,1.535,5.613c1.023,1.326,2.475,1.988,4.354,1.988   c2.416,0,4.58-0.931,6.493-2.794C367.256,133.731,368.582,131.223,369.32,128.068z"
   id="path115" />
</g>
<path
   fill-rule="evenodd"
   clip-rule="evenodd"
   fill="#1F1A17"
   d="M411.158,147.93c6.585-7.725,13.42-23.156,12.925-31.893  c15.023-17.889,16.085-24.445,20.998-42.334c8.732,13.932,21.849,35.087,32.773,48.197  C449.477,125.646,434.915,132.638,411.158,147.93z"
   id="path119" />
<path
   fill="none"
   stroke="#1F1A17"
   stroke-width="0.216"
   stroke-miterlimit="10"
   d="M411.158,147.93  c6.585-7.725,13.42-23.156,12.925-31.893c15.023-17.889,16.085-24.445,20.998-42.334c8.732,13.932,21.849,35.087,32.773,48.197  C449.477,125.646,434.915,132.638,411.158,147.93z"
   id="path121" />
<path
   fill-rule="evenodd"
   clip-rule="evenodd"
   fill="#1F1A17"
   d="M320.494,156.362c-29.81-8.913-47.233-28.877-57.229-46.083  l7.047-6.967c7.227,10.888,10.59,19.574,38.897,31.69C308.276,141.633,316.366,152.766,320.494,156.362z"
   id="path123" />
<path
   fill="none"
   stroke="#1F1A17"
   stroke-width="0.216"
   stroke-miterlimit="10"
   d="M320.494,156.362  c-29.81-8.913-47.233-28.877-57.229-46.083l7.047-6.967c7.227,10.888,10.59,19.574,38.897,31.69  C308.276,141.633,316.366,152.766,320.494,156.362z"
   id="path125" />
<polygon
   fill-rule="evenodd"
   clip-rule="evenodd"
   fill="#1F1A17"
   points="261.335,107.863 269.196,101.101 266.605,96.323   257.821,103.465 "
   id="polygon127" />
<polygon
   fill="none"
   stroke="#1F1A17"
   stroke-width="0.216"
   stroke-miterlimit="10"
   points="261.335,107.863 269.196,101.101   266.605,96.323 257.821,103.465 "
   id="polygon129" />
<path
   style="fill:#ffffff;stroke-width:0.574356"
   d="M 4.0204922,359.83405 V 242.66542 H 45.893828 87.767166 l -0.305092,2.44101 c -0.167798,1.34256 -0.46628,2.60202 -0.663289,2.79881 -0.19701,0.19679 -9.053437,3.90375 -19.680941,8.23769 l -19.322738,7.87989 0.23294,2.10072 c 0.128118,1.1554 0.621559,7.38194 1.096537,13.83676 0.474979,6.45482 0.999459,11.8719 1.165511,12.03795 0.166052,0.16606 9.259739,2.63865 20.208191,5.49465 l 19.906278,5.19272 1.7999,6.03074 1.799905,6.03074 -11.79088,12.34866 c -6.484985,6.79176 -13.067208,13.68375 -14.627165,15.31554 l -2.836285,2.9669 6.199984,11.67918 c 3.409992,6.42355 6.411151,11.95765 6.669244,12.29799 0.405851,0.53521 14.591819,-1.53817 39.343354,-5.75028 l 2.3786,-0.40479 4.13197,4.90678 4.13196,4.90678 -6.9789,19.9543 c -6.48516,18.54258 -6.90756,20.00645 -5.97061,20.69157 0.55456,0.4055 5.50864,4.16206 11.00908,8.34792 5.50044,4.18586 10.23021,7.54691 10.51061,7.469 0.2804,-0.0779 8.15472,-5.1825 17.49848,-11.34353 9.34376,-6.16104 17.09878,-11.20188 17.23337,-11.20188 0.13458,0 2.77971,1.1766 5.87805,2.61466 l 5.63336,2.61466 1.60428,18.49293 c 0.88236,10.17111 1.74056,19.68537 1.90712,21.1428 l 0.30282,2.64989 12.99587,2.95604 c 7.14773,1.62581 13.38356,2.94188 13.85741,2.92458 0.47384,-0.0173 6.15996,-7.77147 12.63583,-17.23149 l 11.7743,-17.20004 3.01537,-0.005 3.01536,-0.005 v 25.55884 25.55885 H 123.77372 l -119.7532278,6e-5 z"
   id="path378" /><path
   style="fill:#ffffff;stroke-width:0.574356"
   d="m 233.27282,375.56474 c -19.52321,-2.65109 -38.8676,-11.11163 -54.37099,-23.77991 -5.94617,-4.85879 -15.5367,-15.10086 -19.8039,-21.14931 -9.40945,-13.33719 -15.66735,-28.12262 -18.66642,-44.1028 -2.07348,-11.04825 -2.0667,-27.29204 0.0161,-38.62555 l 0.96444,-5.24793 50.91386,0.14668 50.91386,0.14668 0.14598,66.76889 0.14598,66.76888 -2.15623,-0.0591 c -1.18593,-0.0325 -4.83213,-0.42244 -8.10269,-0.86656 z"
   id="path380" /><path
   style="fill:#ffffff;stroke-width:0.574356"
   d="M 248.1218,121.18912 V 4.3076702 H 367.30068 486.47955 V 121.18912 238.07057 H 367.30068 248.1218 Z m 130.89201,46.84525 c 7.06289,-1.76678 21.28985,-8.83814 21.30731,-10.59057 0.003,-0.27725 -1.31857,-2.28954 -2.93631,-4.47174 -2.77471,-3.74288 -3.01059,-3.9224 -4.16408,-3.16912 -9.1868,5.99948 -17.68321,8.50833 -28.74115,8.48681 -12.06516,-0.0235 -20.49169,-3.04375 -27.39414,-9.81872 -6.2933,-6.17706 -8.72829,-12.44916 -8.69346,-22.3927 0.0171,-4.87762 0.30565,-6.9209 1.5016,-10.63277 3.87336,-12.02165 12.66501,-20.823535 24.77127,-24.800083 6.06243,-1.991333 17.92287,-2.524749 24.08584,-1.083247 9.05721,2.118454 16.06161,7.350183 19.4163,14.50244 3.21974,6.86454 2.88407,16.67945 -0.81868,23.93743 -2.63286,5.16083 -8.76754,10.08585 -12.60304,10.11791 -3.23035,0.027 -3.19855,-0.4714 1.16863,-18.30891 2.24061,-9.15165 4.07384,-16.78544 4.07384,-16.96396 0,-0.17853 -2.82845,-0.32459 -6.28544,-0.32459 h -6.28545 l -1.01784,1.72307 c -1.23199,2.08559 -1.36567,2.09879 -3.05402,0.30163 -2.2565,-2.40194 -5.67937,-3.35185 -11.0561,-3.06828 -6.06312,0.31977 -10.17343,2.13039 -14.75344,6.49897 -5.94911,5.67449 -8.78393,12.77041 -8.80966,22.05173 -0.0291,10.47879 3.27424,15.48467 11.63039,17.6249 6.89796,1.76675 13.27632,0.36884 17.59134,-3.85538 l 2.36992,-2.32005 1.07622,2.16745 c 1.40546,2.83049 4.39338,4.33259 9.31935,4.68504 8.17651,0.58503 15.26726,-2.25187 21.57401,-8.63144 4.74052,-4.79524 7.344,-9.35247 8.966,-15.69443 1.34716,-5.26738 1.47269,-12.61467 0.30928,-18.10329 -2.64455,-12.47626 -13.28456,-22.887434 -27.6378,-27.043388 -4.07018,-1.178515 -5.73957,-1.317831 -15.47511,-1.291445 -10.22558,0.02768 -11.23542,0.128799 -16.03664,1.605434 -23.6986,7.288601 -37.61173,26.563709 -36.33938,50.344209 1.09385,20.4441 14.83274,35.1247 36.86841,39.39549 5.91989,1.14735 19.8501,0.67802 26.07203,-0.8784 z m -60.1764,-14.09774 c -4.87692,-5.29083 -9.25951,-13.56971 -9.25951,-17.49155 0,-1.53824 -0.47092,-1.8721 -7.29126,-5.1691 -13.97347,-6.75486 -21.61401,-12.98553 -28.03164,-22.85913 -1.89537,-2.91606 -3.71269,-5.30598 -4.03847,-5.31093 -0.80851,-0.0123 -7.16147,6.46353 -7.16147,7.29998 0,1.20872 7.87248,12.39798 12.31733,17.50678 10.55743,12.13445 24.58525,21.65777 39.94907,27.12094 3.00101,1.06712 5.55879,1.84159 5.68395,1.72105 0.12516,-0.12053 -0.85044,-1.38865 -2.168,-2.81804 z m 100.17275,-10.34805 c 18.66015,-11.48873 32.32548,-16.87538 50.30082,-19.82779 4.23043,-0.69483 8.01149,-1.35449 8.40234,-1.46591 0.41733,-0.11896 -1.52489,-3.17518 -4.70565,-7.40465 -5.63068,-7.48716 -15.19859,-21.741428 -23.03929,-34.323926 -2.50541,-4.020596 -4.69211,-7.315964 -4.85935,-7.32304 -0.16724,-0.0071 -1.24713,3.321226 -2.39974,7.396236 -3.76636,13.315657 -6.47918,18.850732 -14.25161,29.07817 -4.01908,5.28857 -4.46459,6.13807 -4.83659,9.22264 -0.85591,7.09689 -5.39755,18.1432 -10.44069,25.39416 -2.39419,3.44233 -2.78156,4.13656 -2.30812,4.13656 0.11426,0 3.7763,-2.1971 8.13788,-4.88245 z M 265.60539,104.8553 c 2.07217,-1.718 3.76759,-3.44783 3.76759,-3.84407 0,-0.97446 -2.29394,-4.806596 -2.87725,-4.806596 -0.87093,0 -8.89799,6.926586 -8.7359,7.538246 0.26013,0.98163 3.24831,4.53648 3.68148,4.37962 0.21807,-0.079 2.09191,-1.5492 4.16408,-3.2672 z"
   id="path382" /><path
   style="fill:#ffffff;stroke-width:0.574356"
   d="M 248.1218,121.18912 V 4.3076702 H 367.30068 486.47955 V 121.18912 238.07057 H 367.30068 248.1218 Z m 125.00078,47.91149 c 5.3794,-0.74821 12.45623,-2.91275 17.15234,-5.24626 4.30446,-2.13891 10.03953,-5.76165 10.0462,-6.346 0.003,-0.24177 -1.31411,-2.25322 -2.92639,-4.46991 l -2.93142,-4.03033 -1.80702,1.18961 c -8.41345,5.53886 -17.37684,8.11305 -28.17671,8.09203 -12.06516,-0.0235 -20.49169,-3.04375 -27.39414,-9.81872 -6.11808,-6.00509 -8.65706,-12.34258 -8.71909,-21.76355 -0.0445,-6.76303 0.77545,-10.46866 3.6359,-16.43112 5.00402,-10.430636 13.74244,-17.42272 25.48266,-20.390073 5.63813,-1.42504 16.07934,-1.550239 21.55969,-0.258512 8.7829,2.070146 15.81042,7.375731 19.12239,14.436895 3.21974,6.86454 2.88407,16.67945 -0.81868,23.93743 -3.46045,6.78305 -12.29397,12.32134 -14.8124,9.28682 -0.64248,-0.77415 1.31257,-9.80942 7.1874,-33.21663 l 0.38896,-1.54974 h -6.34771 -6.34771 l -1.01784,1.72307 c -1.23199,2.08559 -1.36567,2.09879 -3.05402,0.30163 -3.4428,-3.6647 -12.60526,-4.28548 -19.12884,-1.29603 -6.62773,3.03718 -12.43527,10.24561 -14.48952,17.98468 -1.07458,4.04835 -1.27016,12.79301 -0.35989,16.09203 2.02348,7.33361 9.43502,11.77627 18.26963,10.95127 4.57782,-0.42748 6.98604,-1.46617 10.14021,-4.37359 l 2.55552,-2.35559 1.10596,2.13113 c 1.45685,2.80728 4.4435,4.30479 9.27495,4.65048 14.17456,1.01419 27.59269,-10.15688 30.87751,-25.70662 1.29711,-6.14028 0.82072,-15.07006 -1.07983,-20.2412 -4.23227,-11.515386 -13.53314,-19.745241 -26.58619,-23.524728 -4.07521,-1.179968 -5.72753,-1.317142 -15.47511,-1.284731 -10.2029,0.03395 -11.24672,0.138541 -16.04657,1.608312 -17.69752,5.419187 -30.13265,17.731703 -34.88382,34.539827 -1.71807,6.07802 -1.87662,18.6686 -0.30738,24.41013 3.21664,11.76901 10.97504,20.88779 22.47534,26.41622 4.21989,2.02859 11.14261,4.14808 15.55224,4.76154 3.61637,0.50311 13.59994,0.386 17.88338,-0.20977 z m -54.28517,-15.16398 c -4.87692,-5.29083 -9.25951,-13.56971 -9.25951,-17.49155 0,-1.53824 -0.47092,-1.8721 -7.29126,-5.1691 -13.97347,-6.75486 -21.61401,-12.98553 -28.03164,-22.85913 -1.89537,-2.91606 -3.71269,-5.30598 -4.03847,-5.31093 -0.32578,-0.005 -2.13189,1.54678 -4.01358,3.4483 l -3.42124,3.45732 1.29277,2.42983 c 1.79566,3.37504 8.199,11.95511 12.6293,16.92244 7.22522,8.10106 18.15833,16.3515 28.09978,21.2049 5.32347,2.59891 15.7807,6.59155 16.20185,6.18596 0.12516,-0.12053 -0.85044,-1.38865 -2.168,-2.81804 z m 100.21945,-10.40009 c 18.92086,-11.70446 37.34467,-18.57052 55.50481,-20.68513 1.8164,-0.21151 3.30254,-0.62744 3.30254,-0.92429 0,-0.29685 -2.22259,-3.49886 -4.93909,-7.11557 -5.52531,-7.35631 -15.25994,-21.857438 -22.63,-33.710664 -2.68511,-4.318451 -5.01885,-7.85595 -5.18609,-7.861108 -0.16724,-0.0052 -1.24713,3.324712 -2.39974,7.399722 -3.74962,13.256447 -6.20976,18.299052 -14.1628,29.02976 -4.05653,5.47332 -4.59114,6.49052 -4.94188,9.40291 -0.83886,6.96568 -5.41958,18.06671 -10.42421,25.2623 -2.39419,3.44233 -2.78156,4.13656 -2.30812,4.13656 0.11426,0 3.79731,-2.22052 8.18458,-4.93449 z M 265.28767,105.03608 c 2.08897,-1.77652 3.87785,-3.4372 3.97528,-3.69041 0.0974,-0.25321 -0.37107,-1.534965 -1.0411,-2.84835 -0.84141,-1.649287 -1.48536,-2.285472 -2.08174,-2.05662 -1.57499,0.604378 -8.23877,6.35592 -8.24658,7.11766 -0.007,0.69186 2.87073,4.70769 3.37365,4.70773 0.12231,10e-6 1.93153,-1.4535 4.02049,-3.23001 z"
   id="path384" /><g
   id="g248"
   style="fill:#ffffff;fill-opacity:1"><path
     style="fill:#ffffff;stroke-width:0.574356;fill-opacity:1"
     d="M 4.0204921,359.83404 V 242.66542 H 45.955269 87.890048 l -0.367404,2.44101 c -0.20207,1.34256 -0.528201,2.60897 -0.724734,2.81426 -0.196533,0.20528 -9.052971,3.90918 -19.680981,8.23088 l -19.323648,7.85765 0.233853,2.10752 c 0.128619,1.15913 0.622471,7.38874 1.097449,13.84356 0.474978,6.45482 0.981223,11.85366 1.124989,11.99743 0.143765,0.14376 9.247251,2.61729 20.22997,5.49672 l 19.968573,5.23533 1.777436,6.02866 1.777431,6.02866 -10.386292,10.83857 c -5.712465,5.96121 -12.280289,12.87262 -14.595173,15.35867 l -4.20887,4.5201 6.445309,12.06683 c 5.259912,9.84754 6.667796,12.06677 7.655011,12.06651 0.665334,-1.7e-4 9.963968,-1.4217 20.663635,-3.15896 10.699668,-1.73725 19.538978,-3.15864 19.642908,-3.15864 0.10394,0 2.03844,2.19627 4.2989,4.88061 l 4.10992,4.8806 -6.66574,18.98033 c -3.66616,10.43918 -6.65384,19.55054 -6.63928,20.24747 0.02,0.95949 2.57215,3.18458 10.51148,9.16454 5.76675,4.34356 10.78827,7.89739 11.15892,7.89739 0.37066,0 8.32145,-5.03997 17.66843,-11.19994 9.34698,-6.15997 17.13637,-11.19994 17.30976,-11.19994 0.17339,0 2.81996,1.17814 5.88127,2.61809 l 5.56601,2.6181 1.60399,18.48949 c 0.8822,10.16921 1.74026,19.68193 1.90681,21.13937 l 0.30283,2.64988 13.16645,3.00118 c 7.24155,1.65064 13.49894,2.87359 13.9053,2.71766 0.40636,-0.15594 6.01571,-7.92783 12.46524,-17.27087 l 11.72641,-16.98735 3.01537,-0.0109 3.01537,-0.0109 v 25.55884 25.55885 H 123.77372 l -119.7532279,2e-5 z"
     id="path213" /><path
     style="fill:#ffffff;stroke-width:0.574356;fill-opacity:1"
     d="m 233.27282,375.56474 c -19.52321,-2.65109 -38.86761,-11.11163 -54.371,-23.77992 -5.5782,-4.55811 -15.40057,-14.95077 -19.3836,-20.50902 -9.50047,-13.25772 -16.12603,-28.77757 -19.13059,-44.81185 -2.0272,-10.81848 -2.0015,-27.33932 0.06,-38.55679 l 0.96444,-5.24793 50.91385,0.14668 50.91386,0.14668 0.14599,66.76889 0.14597,66.76889 -2.15622,-0.0591 c -1.18593,-0.0325 -4.83214,-0.42245 -8.10269,-0.86656 z"
     id="path215" /></g><path
   style="display:inline;fill:#ffffff;stroke-width:0.574356"
   d="M 248.1218,121.18912 V 4.3076701 H 367.30067 486.47954 V 121.18912 238.07057 H 367.30067 248.1218 Z m 125.02446,47.91879 c 8.14807,-1.11409 20.54323,-6.10624 25.52732,-10.28114 l 1.73488,-1.45322 -2.95071,-4.19657 -2.95071,-4.19657 -1.82889,1.22628 c -3.77129,2.52867 -11.32751,5.75768 -16.15851,6.90504 -6.32493,1.50216 -16.56132,1.61078 -22.74984,0.24138 -6.47439,-1.43265 -12.23959,-4.49928 -16.68872,-8.87709 -6.11675,-6.0187 -8.65274,-12.35334 -8.71474,-21.76855 -0.0445,-6.76311 0.77547,-10.46875 3.63599,-16.43112 6.69449,-13.953785 19.63016,-21.538346 36.73423,-21.538346 14.6077,0 24.71566,5.275058 29.45039,15.369336 3.19875,6.81961 2.85346,16.65764 -0.83864,23.89476 -2.63286,5.16083 -8.76755,10.08585 -12.60304,10.11791 -3.25718,0.0272 -3.22877,-0.53526 0.87689,-17.363 2.10006,-8.60742 3.97157,-16.23139 4.15892,-16.94216 0.33817,-1.28296 0.29459,-1.2923 -6.02953,-1.2923 h -6.37015 l -0.89103,1.72307 c -0.49007,0.94768 -1.04412,1.72306 -1.23123,1.72306 -0.1871,0 -1.21092,-0.7645 -2.27514,-1.69889 -2.59511,-2.27855 -5.90817,-3.09227 -11.13971,-2.73602 -5.99115,0.40796 -10.06023,2.32312 -14.57825,6.86143 -6.39415,6.42286 -8.68486,12.88494 -8.28439,23.37027 0.32855,8.60256 2.41295,12.17771 8.79092,15.07817 2.32878,1.05904 3.84917,1.30072 8.04098,1.27823 6.03258,-0.0324 8.3094,-0.84846 12.09018,-4.33347 l 2.53576,-2.33738 0.52349,1.35617 c 1.22708,3.17895 4.54381,5.0499 9.72074,5.48343 13.91382,1.16518 27.63811,-10.12868 30.83984,-25.37843 4.32957,-20.62166 -7.01377,-38.283864 -28.46132,-44.315866 -3.00126,-0.844085 -5.76117,-1.035437 -14.61286,-1.013158 -10.22002,0.02573 -11.2391,0.127387 -16.05363,1.60154 -14.03949,4.298745 -25.90827,14.013144 -31.61376,25.875354 -6.86579,14.27457 -6.30331,32.58834 1.36233,44.35626 6.98842,10.72825 18.51512,17.49134 33.95641,19.9233 3.07593,0.48445 12.77166,0.35265 17.04553,-0.23171 z m -54.31968,-15.18303 c -4.82372,-5.23312 -9.24869,-13.5599 -9.24869,-17.40392 0,-1.43642 -0.61701,-1.8749 -7.32304,-5.2042 -14.09587,-6.99808 -21.46318,-12.97304 -27.88022,-22.61109 -1.82958,-2.74793 -3.59986,-5.16517 -3.93396,-5.37165 -0.66209,-0.4092 -7.38562,5.93331 -7.38562,6.96707 0,1.15127 6.6964,10.78817 11.39612,16.40032 10.27053,12.26455 24.66866,22.32237 40.29593,28.14872 6.31175,2.35322 6.96491,2.20508 4.07948,-0.92525 z M 420.4286,142.69145 c 11.07452,-6.64943 20.64109,-11.25113 29.57934,-14.22819 6.89194,-2.29551 17.75201,-4.81834 23.98695,-5.57226 1.82057,-0.22013 3.44187,-0.6134 3.60288,-0.87391 0.16101,-0.26051 -2.07123,-3.65491 -4.96053,-7.54309 -5.46879,-7.35948 -16.37266,-23.669894 -23.23788,-34.760099 -2.19245,-3.541721 -4.1155,-6.447388 -4.27345,-6.457037 -0.15795,-0.0096 -1.25735,3.363337 -2.44312,7.495518 -3.82927,13.344278 -6.51863,18.814008 -14.46479,29.419008 -3.73952,4.99078 -4.26446,6.00342 -4.61318,8.89903 -0.83908,6.96741 -5.41928,18.06772 -10.42443,25.26405 -2.46739,3.54759 -2.94601,4.45505 -2.08507,3.95332 0.23692,-0.13808 4.4369,-2.65643 9.33328,-5.59634 z M 263.25932,106.75658 c 0.99329,-0.83024 2.81123,-2.41287 4.03986,-3.51695 l 2.23388,-2.00743 -1.22129,-2.513784 c -0.67171,-1.382584 -1.47648,-2.513784 -1.78837,-2.513784 -0.65741,0 -8.63755,6.761998 -8.63755,7.319058 0,0.49603 2.95283,4.74242 3.29775,4.74242 0.14836,0 1.08243,-0.67929 2.07572,-1.50953 z"
   id="path217" /><g
   id="g252"
   style="display:inline"><path
     style="fill:#ffffff;stroke-width:0.574356"
     d="m 355.4471,136.50604 c -1.52701,-1.36439 -1.86258,-2.13448 -2.08175,-4.77738 -0.48042,-5.79327 2.36099,-14.39959 5.83008,-17.65862 1.99769,-1.87674 5.33717,-2.90458 7.45944,-2.29592 2.24946,0.64513 3.13784,1.57257 4.05115,4.22921 0.66384,1.93097 0.57755,2.81625 -0.80596,8.26899 -1.74522,6.87826 -2.64371,8.87645 -4.98913,11.09557 -3.31649,3.1379 -6.76196,3.55226 -9.46383,1.13815 z"
     id="path219" /><path
     style="fill:#ffffff;stroke-width:0.574356"
     d="M 246.47961,122.16103 246.5744,3.9524882 367.30067,4.3076701 H 486.47954 V 121.18912 238.07057 l -120.82106,0.97191 -117.56111,-0.71795 z m 132.88254,45.59347 c 6.09584,-1.56834 15.92341,-6.07953 19.12936,-8.78103 l 1.89869,-1.59992 -2.95836,-4.18595 -2.95836,-4.18595 -1.8121,1.21566 c -3.75276,2.51754 -11.31799,5.74878 -16.14174,6.89442 -6.32493,1.50216 -16.56132,1.61078 -22.74984,0.24138 -6.47439,-1.43265 -12.23959,-4.49928 -16.68872,-8.87709 -6.11675,-6.0187 -8.65274,-12.35334 -8.71474,-21.76855 -0.0426,-6.46585 0.76376,-10.32958 3.30919,-15.85676 6.55875,-14.241714 19.75058,-22.112706 37.06103,-22.112706 13.07168,0 22.33926,4.074401 27.72501,12.189036 6.46092,9.73457 4.80412,24.75326 -3.65273,33.11159 -3.55412,3.51271 -8.72114,5.12008 -10.30893,3.20692 -0.61073,-0.73588 -0.0816,-3.55022 3.10466,-16.51273 2.11248,-8.59412 3.99303,-16.2072 4.179,-16.91797 0.33566,-1.28281 0.29136,-1.2923 -6.03202,-1.2923 h -6.37015 l -0.89103,1.72307 c -1.07969,2.08789 -1.43368,2.12366 -3.13149,0.31641 -2.84516,-3.02853 -10.0855,-4.04897 -16.14878,-2.27597 -8.28071,2.42141 -14.98675,9.8016 -17.50565,19.26545 -1.09719,4.12231 -1.06618,12.72035 0.0596,16.51109 1.93141,6.50377 7.4341,10.01552 15.76237,10.05938 5.71215,0.0301 9.28612,-1.27441 12.75747,-4.65645 l 2.13189,-2.07703 0.53536,1.38743 c 1.18715,3.07652 4.39805,4.98906 9.22257,5.49332 12.60529,1.31751 25.50855,-7.90021 30.28494,-21.63472 1.96433,-5.64843 2.43082,-13.95387 1.12849,-20.09149 -2.84325,-13.399564 -13.42203,-23.756966 -28.52485,-27.927946 -2.92229,-0.807056 -5.93373,-1.024071 -14.32568,-1.032359 -9.32635,-0.0092 -11.18005,0.148012 -15.16014,1.285811 -23.8931,6.830386 -38.86016,26.863764 -37.48684,50.176074 0.64813,11.00213 3.72529,18.50416 10.57781,25.78844 6.85586,7.28781 15.72327,11.98724 26.47493,14.03081 6.74912,1.2828 18.92412,0.76768 26.21983,-1.10937 z m -58.87149,-11.72782 c 0,-0.26694 -0.54758,-0.97771 -1.21684,-1.57948 -3.7213,-3.34607 -8.80853,-12.36567 -9.5828,-16.99019 l -0.41578,-2.48335 -8.40133,-4.35611 c -13.97094,-7.24397 -19.55135,-11.85392 -26.56195,-21.9427 -4.38817,-6.31492 -3.71823,-6.18832 -8.52871,-1.61163 -1.50051,1.42758 -2.7282,2.87123 -2.7282,3.20813 0,0.89481 5.93908,9.70748 9.66141,14.33602 10.80455,13.43495 24.3905,23.27113 41.2666,29.8769 5.28046,2.06692 6.5076,2.35777 6.5076,1.54241 z m 100.22512,-13.55267 c 8.89147,-5.42431 21.20003,-11.32607 29.29216,-14.04514 6.58698,-2.21332 22.41177,-5.78835 25.66853,-5.79887 0.85007,-0.003 1.69217,-0.24218 1.87134,-0.53208 0.17917,-0.28989 -1.5804,-3.08835 -3.91015,-6.21879 -6.04965,-8.12878 -12.93758,-18.293464 -21.01886,-31.018029 -3.862,-6.080994 -7.21462,-11.056353 -7.45027,-11.056353 -0.23565,0 -1.39793,3.325148 -2.58283,7.389216 -3.86137,13.244001 -5.75225,16.912499 -16.68207,32.365066 -1.29738,1.83423 -2.04743,3.68791 -2.32398,5.74356 -0.93114,6.92101 -5.20076,17.39128 -10.02075,24.57359 -1.16597,1.73743 -2.34303,3.53638 -2.61569,3.99767 -0.5336,0.90278 -0.79897,1.04941 9.77257,-5.39984 z m -155.14016,-37.81319 3.95645,-3.59525 -1.23994,-2.43047 c -0.68196,-1.336756 -1.40465,-2.430468 -1.60597,-2.430468 -0.5495,0 -6.05659,4.332938 -7.6137,5.990398 l -1.36152,1.44927 1.60146,2.3109 c 0.8808,1.271 1.76015,2.30865 1.95411,2.30589 0.19396,-0.003 2.13306,-1.62288 4.30911,-3.60027 z"
     id="path221"
     sodipodi:nodetypes="cccccccccsscccssssssssssssscsssscsscssssssssssssssscssssssssscssssssssssscssscscs" /></g><path
   id="path3593"
   style="display:inline;fill:#1f1a17;fill-opacity:1;stroke-width:0.310854"
   inkscape:label="docs"
   d="M 246.64844 262.55274 L 211.20508 262.55273 L 211.20508 262.55273 C 209.5974 262.55273 208.29297 263.77696 208.29297 265.28711 C 208.29297 266.79727 209.5974 268.02148 211.20508 268.02148 L 246.64844 268.02148 " /><path
   id="path3720"
   style="display:inline;fill:#1f1a17;fill-opacity:1;stroke-width:0.310854"
   inkscape:label="docs"
   d="M 246.64844 244.47071 L 211.20508 244.4707 C 209.5974 244.4707 208.29297 245.69689 208.29297 247.20703 C 208.29297 248.71719 209.5974 249.94141 211.20508 249.94141 L 246.64844 249.94141 " /><path
   id="path3716"
   style="display:inline;fill:#1f1a17;fill-opacity:1;stroke-width:0.310854"
   inkscape:label="docs"
   d="M 246.83984 213.78516 L 277.21484 213.78516 C 278.82284 213.78516 280.12695 212.55897 280.12695 211.04883 C 280.12695 209.53867 278.82284 208.31445 277.21484 208.31445 L 246.83984 208.31445 L 246.83984 213.78516 L 246.83984 213.78516 " /><path
   id="path3714"
   style="display:inline;fill:#1f1a17;fill-opacity:1;stroke-width:0.310854"
   inkscape:label="docs"
   d="m 246.83984,232.16406 h 30.375 c 1.608,0 2.91211,-1.22452 2.91211,-2.73437 0,-1.50987 -1.30411,-2.73633 -2.91211,-2.73633 h -30.375 v 5.4707 0" /><path
   id="path3712"
   style="display:inline;fill:#1f1a17;fill-opacity:1;stroke-width:0.310854"
   inkscape:label="docs"
   d="m 246.64843,303.94921 -47.67382,1e-5 c -0.81795,0 -1.48047,-0.62875 -1.48047,-1.39453 v -62.91992 h -7.77344 v 62.91992 c 0,4.79708 4.15279,8.69531 9.25391,8.69531 h 47.67383" /><path
   id="path3708"
   style="display:inline;fill:#1f1a17;fill-opacity:1;stroke-width:0.310854"
   inkscape:label="docs"
   d="m 301.28906,240.01367 v -43.64453 l -26.34179,-26.88281 h -28.10743 v 7.30469 h 22.51563 v 21.14062 c 0,2.01295 1.74403,3.64649 3.88867,3.64648 h 20.27344 v 38.43555" /></svg>
