<svg xmlns="http://www.w3.org/2000/svg" xmlns:xlink="http://www.w3.org/1999/xlink" version="1.1" id="Layer_1" x="0px" y="0px" width="491.01px" height="480.736px" viewBox="0 0 491.01 480.736" enable-background="new 0 0 491.01 480.736" xml:space="preserve">
<path fill-rule="evenodd" clip-rule="evenodd" fill="#1F1A17" d="M247.958,377.012l0.34,48.216h-10.864l-24.108,34.974  l-26.824-6.113l-3.737-42.104l-11.884-5.77l-34.974,23.088l-21.729-16.639l13.922-39.727l-8.489-10.186l-41.426,6.789  l-12.904-24.106l29.204-30.559l-3.735-12.564l-40.407-10.525l-2.039-27.507l39.049-15.956l2.037-13.24l53.76-0.13  c-3.165,10.316-4.867,21.206-4.867,32.383C138.285,327.777,187.521,377.012,247.958,377.012z"/>
<path fill="none" stroke="#1F1A17" stroke-width="0.216" stroke-miterlimit="10" d="M247.958,377.012l0.34,48.216h-10.864  l-24.108,34.974l-26.824-6.113l-3.737-42.104l-11.884-5.77l-34.974,23.088l-21.729-16.639l13.922-39.727l-8.489-10.186  l-41.426,6.789l-12.904-24.106l29.204-30.559l-3.735-12.564l-40.407-10.525l-2.039-27.507l39.049-15.956l2.037-13.24l53.76-0.13  c-3.165,10.316-4.867,21.206-4.867,32.383C138.285,327.777,187.521,377.012,247.958,377.012z"/>
<polyline fill="#DE401A" points="489.243,478.977 245.514,478.977 245.514,240.218 489.243,240.218 "/>
<path fill="#1F1A17" d="M247.268,477.205L247.268,477.205h240.201v-235.22H247.268 M489.243,478.972L489.243,478.972v-1.767V478.972  z M243.736,480.736V238.45H491.01v240.522v1.763H243.736z"/>
<path fill="#1F1A17" d="M3.536,477.205L3.536,477.205H243.74v-235.22H3.536 M245.509,478.972L245.509,478.972v-1.767V478.972z   M0.003,480.736V238.45h247.273v240.522v1.763H0.003z"/>
<polyline fill="#DE401A" points="245.509,240.524 1.771,240.524 1.771,1.768 245.509,1.768 "/>
<path fill="#1F1A17" d="M3.539,238.754L3.539,238.754H243.74V3.531H3.539 M245.509,240.524L245.509,240.524v-1.77V240.524z   M0,242.29V0h247.272v240.524v1.766H0z"/>
<polyline fill="#FFFFFF" points="139.85,25.822 105.583,25.822 77.957,138.715 127.895,117.464 121.521,174.578 107.44,167.938   120.724,213.093 151.274,174.578 135.07,176.967 158.971,80.013 111.694,102.592 "/>
<path fill="#1F1A17" d="M247.264,238.754L247.264,238.754h240.204V3.531H247.272L247.264,238.754z M489.243,240.524L489.243,240.524  v-1.77V240.524z M243.736,242.29V0h247.267v240.524v1.766H243.736z"/>
<path fill="none" stroke="#1F1A17" stroke-width="1.0001" stroke-miterlimit="10" d="M247.264,238.754L247.264,238.754h240.204  V3.531H247.272L247.264,238.754z M489.243,240.524L489.243,240.524v-1.77V240.524z M243.736,242.29V0h247.267v240.524v1.766H243.736  z"/>
<path fill-rule="evenodd" clip-rule="evenodd" fill="#FFFFFF" d="M287.069,323.83c14.273-8.789,29.879-13.484,46.1-14.463  l137.064,1.156l0.022,8.382l-139.798,1.309l0.603-4.218c-14.262,1.013-28.178,7.695-42.786,11.751  C285.537,328.507,284.347,325.505,287.069,323.83"/>
<polyline fill-rule="evenodd" clip-rule="evenodd" fill="#FFFFFF" points="325.033,327.335 325.637,374.942 331.663,374.942   337.689,327.938 "/>
<path fill-rule="evenodd" clip-rule="evenodd" fill="#FFFFFF" d="M305.298,374.641c10.538,0,19.133,8.662,19.133,19.284  c0,10.621-8.595,19.284-19.133,19.284c-10.538,0-19.133-8.663-19.133-19.284C286.165,383.303,294.76,374.641,305.298,374.641"/>
<path fill-rule="evenodd" clip-rule="evenodd" fill="#FFFFFF" d="M305.299,380.736c7.207,0,13.085,5.925,13.085,13.189  c0,7.264-5.878,13.189-13.085,13.189c-7.209,0-13.086-5.925-13.086-13.189C292.212,386.66,298.09,380.736,305.299,380.736"/>
<path fill-rule="evenodd" clip-rule="evenodd" fill="#FFFFFF" d="M405.496,375.102c10.538,0,19.133,8.663,19.133,19.284  c0,10.621-8.595,19.283-19.133,19.283c-10.538,0-19.133-8.662-19.133-19.283C386.362,383.765,394.957,375.102,405.496,375.102"/>
<path fill-rule="evenodd" clip-rule="evenodd" fill="#FFFFFF" d="M405.496,381.197c7.208,0,13.086,5.924,13.086,13.189  c0,7.264-5.878,13.189-13.086,13.189c-7.208,0-13.086-5.925-13.086-13.189C392.41,387.121,398.288,381.197,405.496,381.197"/>
<path fill-rule="evenodd" clip-rule="evenodd" fill="#FFFFFF" d="M445.726,375.563c10.538,0,19.133,8.663,19.133,19.284  c0,10.621-8.595,19.284-19.133,19.284c-10.538,0-19.133-8.663-19.133-19.284C426.594,384.225,435.188,375.563,445.726,375.563"/>
<path fill-rule="evenodd" clip-rule="evenodd" fill="#FFFFFF" d="M445.727,381.658c7.207,0,13.086,5.924,13.086,13.189  c0,7.265-5.878,13.189-13.086,13.189c-7.208,0-13.086-5.924-13.086-13.189C432.64,387.582,438.519,381.658,445.727,381.658"/>
<path fill-rule="evenodd" clip-rule="evenodd" fill="#FFFFFF" d="M302.436,405.675c-13.702-4.398-11.041-21.635,0-23.201  C293.999,389.405,293.906,399.842,302.436,405.675"/>
<path fill-rule="evenodd" clip-rule="evenodd" fill="#FFFFFF" d="M402.633,406.137c-13.703-4.399-11.041-21.635,0-23.201  C394.197,389.866,394.104,400.303,402.633,406.137"/>
<path fill-rule="evenodd" clip-rule="evenodd" fill="#FFFFFF" d="M442.864,406.598c-13.702-4.399-11.04-21.635,0-23.201  C434.427,390.327,434.334,400.764,442.864,406.598"/>
<path fill-rule="evenodd" clip-rule="evenodd" fill="#FFFFFF" d="M320.816,337.278v-6.026c-13.86,0.101-27.721,1.406-41.581,3.917  c-13.458,17.601-15.467,38.542-9.641,61.768l15.065,0.301l-0.301-3.013l-8.437-5.423c-0.151-5.876-0.653-12.605,0-19.284  c13.523-5.594,29.062-8.668,45.799-10.244l-1.205-6.629c-14.262,0.2-28.524,1.405-42.786,4.821c1.507-6.528,3.817-11.45,6.93-14.764  C295.908,340.091,307.96,338.283,320.816,337.278"/>
<polyline fill-rule="evenodd" clip-rule="evenodd" fill="#FFFFFF" points="340.671,371.062 470.242,371.062 470.242,317.521   340.671,317.521 "/>
<g>
	<path fill="#1F1A17" d="M375.109,107.077l2.467-4.127h12.182l-7.853,31.562c-0.067,0.403-0.118,0.713-0.151,0.931   c-0.033,0.219-0.05,0.412-0.05,0.579c0,0.805,0.209,1.418,0.629,1.837c0.419,0.42,0.998,0.629,1.736,0.629   c4.296,0,8.172-2.382,11.629-7.148c3.456-4.765,5.185-10.319,5.185-16.662c0-7.919-2.929-14.312-8.784-19.179   c-5.856-4.866-13.616-7.299-23.281-7.299c-4.766,0-9.229,0.596-13.39,1.787c-4.162,1.192-7.938,2.962-11.326,5.311   c-5.169,3.624-9.162,8.138-11.981,13.541c-2.818,5.403-4.228,11.275-4.228,17.618c0,9.866,3.347,17.728,10.042,23.583   c6.695,5.856,15.681,8.784,26.956,8.784c5.369,0,10.529-0.789,15.479-2.366c4.949-1.578,9.622-3.927,14.02-7.048l5.788,8.054   c-5.504,4.094-11.242,7.131-17.216,9.111c-5.974,1.98-12.366,2.97-19.179,2.97c-6.31,0-12.266-0.915-17.87-2.744   c-5.604-1.83-10.538-4.455-14.799-7.878c-5.001-3.994-8.743-8.675-11.226-14.044c-2.484-5.369-3.726-11.41-3.726-18.122   c0-5.906,0.932-11.485,2.794-16.738c1.862-5.251,4.606-10.025,8.23-14.321c5-5.94,11.065-10.496,18.197-13.667   c7.131-3.171,14.875-4.757,23.231-4.757c12.953,0,23.457,3.457,31.512,10.37c8.054,6.914,12.081,15.857,12.081,26.831   c0,5.739-1.142,11.016-3.423,15.832c-2.282,4.816-5.571,8.885-9.866,12.207c-2.35,1.846-4.926,3.255-7.728,4.229   c-2.802,0.974-5.73,1.459-8.784,1.459c-3.658,0-6.451-0.637-8.381-1.913c-1.931-1.275-3.046-3.205-3.348-5.789   c-1.98,2.651-4.12,4.581-6.418,5.789c-2.299,1.208-5.009,1.812-8.13,1.812c-5.738,0-10.06-1.476-12.962-4.43   c-2.903-2.953-4.354-7.35-4.354-13.188c0-8.289,2.408-15.194,7.224-20.714c4.815-5.52,10.798-8.281,17.945-8.281   c2.483,0,4.673,0.47,6.569,1.41C372.449,103.838,373.968,105.232,375.109,107.077z M369.32,128.068l2.366-9.816   c-0.235-2.248-0.939-4.002-2.114-5.26c-1.175-1.259-2.702-1.888-4.581-1.888c-3.188,0-5.99,1.955-8.406,5.864   c-2.416,3.91-3.624,8.516-3.624,13.818c0,2.417,0.511,4.288,1.535,5.613c1.023,1.326,2.475,1.988,4.354,1.988   c2.416,0,4.58-0.931,6.493-2.794C367.256,133.731,368.582,131.223,369.32,128.068z"/>
</g>
<path fill-rule="evenodd" clip-rule="evenodd" fill="#1F1A17" d="M411.158,147.93c6.585-7.725,13.42-23.156,12.925-31.893  c15.023-17.889,16.085-24.445,20.998-42.334c8.732,13.932,21.849,35.087,32.773,48.197  C449.477,125.646,434.915,132.638,411.158,147.93z"/>
<path fill="none" stroke="#1F1A17" stroke-width="0.216" stroke-miterlimit="10" d="M411.158,147.93  c6.585-7.725,13.42-23.156,12.925-31.893c15.023-17.889,16.085-24.445,20.998-42.334c8.732,13.932,21.849,35.087,32.773,48.197  C449.477,125.646,434.915,132.638,411.158,147.93z"/>
<path fill-rule="evenodd" clip-rule="evenodd" fill="#1F1A17" d="M320.494,156.362c-29.81-8.913-47.233-28.877-57.229-46.083  l7.047-6.967c7.227,10.888,10.59,19.574,38.897,31.69C308.276,141.633,316.366,152.766,320.494,156.362z"/>
<path fill="none" stroke="#1F1A17" stroke-width="0.216" stroke-miterlimit="10" d="M320.494,156.362  c-29.81-8.913-47.233-28.877-57.229-46.083l7.047-6.967c7.227,10.888,10.59,19.574,38.897,31.69  C308.276,141.633,316.366,152.766,320.494,156.362z"/>
<polygon fill-rule="evenodd" clip-rule="evenodd" fill="#1F1A17" points="261.335,107.863 269.196,101.101 266.605,96.323   257.821,103.465 "/>
<polygon fill="none" stroke="#1F1A17" stroke-width="0.216" stroke-miterlimit="10" points="261.335,107.863 269.196,101.101   266.605,96.323 257.821,103.465 "/>
</svg>